<svg xmlns="http://www.w3.org/2000/svg" viewBox="0 0 64 64" fill="none" role="img" aria-label="Application markets icon">
  <defs>
    <filter id="glow" x="-30%" y="-30%" width="160%" height="160%">
      <feGaussianBlur stdDeviation="1.1" result="blur"/>
      <feMerge>
        <feMergeNode in="blur"/>
        <feMergeNode in="SourceGraphic"/>
      </feMerge>
    </filter>
  </defs>
  <g filter="url(#glow)" stroke="#D8A64A" stroke-width="1.8" stroke-linecap="round" stroke-linejoin="round">
    <rect x="11" y="11" width="12" height="12" rx="2"/>
    <rect x="26" y="11" width="12" height="12" rx="2"/>
    <rect x="41" y="11" width="12" height="12" rx="2"/>
    <rect x="11" y="26" width="12" height="12" rx="2"/>
    <rect x="26" y="26" width="12" height="12" rx="2"/>
    <rect x="41" y="26" width="12" height="12" rx="2"/>
    <rect x="19" y="41" width="12" height="12" rx="2"/>
    <rect x="34" y="41" width="12" height="12" rx="2"/>
    <path d="M16 15l5 2.8-5 2.8z"/>
    <path d="M30 17h4"/>
    <path d="M47 14v6"/>
    <path d="M45 20h4"/>
    <path d="M14 32h6"/>
    <path d="M29 31c2-2 4-2 6 0"/>
    <path d="M44 34h6"/>
    <path d="M25 45v4"/>
    <path d="M39 45c2 2 2 4 0 6"/>
  </g>
  <path d="M12 56h40" stroke="#8F94C8" stroke-width="1.3" stroke-linecap="round" opacity=".5"/>
</svg>
