<svg xmlns="http://www.w3.org/2000/svg" viewBox="0 0 64 64" fill="none" role="img" aria-label="Chat microphone icon">
  <defs>
    <filter id="glow" x="-30%" y="-30%" width="160%" height="160%">
      <feGaussianBlur stdDeviation="1.15" result="blur"/>
      <feMerge>
        <feMergeNode in="blur"/>
        <feMergeNode in="SourceGraphic"/>
      </feMerge>
    </filter>
  </defs>
  <g filter="url(#glow)" stroke="#D8A64A" stroke-width="2" stroke-linecap="round" stroke-linejoin="round">
    <path d="M12 14h40c3 0 5 2 5 5v21c0 3-2 5-5 5H30l-12 8v-8h-6c-3 0-5-2-5-5V19c0-3 2-5 5-5z"/>
    <rect x="28" y="20" width="9" height="19" rx="4.5"/>
    <path d="M23 30c0 7 4 11 9.5 11S42 37 42 30"/>
    <path d="M32.5 41v5"/>
    <path d="M28 46h9"/>
  </g>
  <path d="M30.5 27h4" stroke="#C89432" stroke-width="1.5" stroke-linecap="round"/>
</svg>
