<svg xmlns="http://www.w3.org/2000/svg" viewBox="0 0 64 64" fill="none" role="img" aria-label="Webinars and assignments icon">
  <defs>
    <filter id="glow" x="-30%" y="-30%" width="160%" height="160%">
      <feGaussianBlur stdDeviation="1.15" result="blur"/>
      <feMerge>
        <feMergeNode in="blur"/>
        <feMergeNode in="SourceGraphic"/>
      </feMerge>
    </filter>
  </defs>
  <g filter="url(#glow)" stroke="#D8A64A" stroke-width="2" stroke-linecap="round" stroke-linejoin="round">
    <rect x="12" y="11" width="26" height="42" rx="4"/>
    <path d="M19 22l3 3 5-6"/>
    <path d="M19 34l3 3 5-6"/>
    <path d="M19 44h10"/>
    <path d="M43 31c0-6 4-10 9-10s9 4 9 10"/>
    <path d="M43 31v10c0 2 1 3 3 3h2V31z"/>
    <path d="M61 31v10c0 2-1 3-3 3h-2V31z"/>
    <path d="M48 49c4 2 8 2 12 0"/>
  </g>
  <path d="M18 16h14" stroke="#8F94C8" stroke-width="1.4" stroke-linecap="round" opacity=".55"/>
</svg>
